<svg width="29" height="24" viewBox="0 0 29 24" fill="none" xmlns="http://www.w3.org/2000/svg">
<g clip-path="url(#clip0_110_68)">
<rect width="28.5" height="24" rx="6" fill="#DA7816"/>
<rect width="28.5" height="24" fill="black" fill-opacity="0.54"/>
<path d="M22 12C22 9.2 22 7.8 21.455 6.73C20.9756 5.78923 20.2108 5.02436 19.27 4.545C18.2 4 16.8 4 14 4C11.2 4 9.8 4 8.73 4.545C7.78923 5.02436 7.02436 5.78923 6.545 6.73C6 7.8 6 9.2 6 12V18C6 18.943 6 19.414 6.293 19.707C6.586 20 7.057 20 8 20H14C16.8 20 18.2 20 19.27 19.455C20.2108 18.9756 20.9756 18.2108 21.455 17.27C22 16.2 22 14.8 22 12Z" fill="#C0A7A7" fill-opacity="0.21"/>
<path d="M10.5 8.5H17.5M10.5 11.5H15.5" stroke="#DA7816" stroke-linecap="round" stroke-linejoin="round"/>
<path d="M18.5 17.5C19.6046 17.5 20.5 16.6046 20.5 15.5C20.5 14.3954 19.6046 13.5 18.5 13.5C17.3954 13.5 16.5 14.3954 16.5 15.5C16.5 16.6046 17.3954 17.5 18.5 17.5Z" stroke="#DA7816"/>
<path d="M21 18L22.5 19.5" stroke="#DA7816" stroke-linecap="round"/>
</g>
<defs>
<clipPath id="clip0_110_68">
<rect width="28.5" height="24" rx="6" fill="white"/>
</clipPath>
</defs>
</svg>
