<svg width="215" height="215" viewBox="0 0 215 215" fill="none" xmlns="http://www.w3.org/2000/svg">
<path fill-rule="evenodd" clip-rule="evenodd" d="M132.288 26.875C129.32 30.177 127.218 34.1636 126.169 38.4777C125.12 42.7917 125.159 47.2986 126.28 51.5943C127.401 55.8901 129.57 59.8406 132.593 63.092C135.617 66.3434 139.399 68.794 143.602 70.2244L146.988 71.38C148.286 71.8221 149.464 72.5559 150.433 73.525C151.402 74.4942 152.136 75.6727 152.578 76.97L153.743 80.3563C155.172 84.5591 157.622 88.3417 160.872 91.365C164.123 94.3883 168.072 96.5578 172.368 97.6791C176.663 98.8004 181.169 98.8385 185.483 97.7898C189.796 96.7412 193.782 94.6386 197.083 91.6706L197.074 143.333C197.074 150.461 194.243 157.297 189.203 162.337C184.163 167.377 177.327 170.208 170.199 170.208H65.6914L35.8333 192.604C28.4516 198.14 17.9166 192.873 17.9166 183.646V53.75C17.9166 46.6223 20.7481 39.7865 25.7881 34.7465C30.8282 29.7065 37.6639 26.875 44.7916 26.875H132.288ZM98.5416 107.5H71.6666C69.2907 107.5 67.0121 108.444 65.3321 110.124C63.6521 111.804 62.7083 114.082 62.7083 116.458C62.7083 118.834 63.6521 121.113 65.3321 122.793C67.0121 124.473 69.2907 125.417 71.6666 125.417H98.5416C100.918 125.417 103.196 124.473 104.876 122.793C106.556 121.113 107.5 118.834 107.5 116.458C107.5 114.082 106.556 111.804 104.876 110.124C103.196 108.444 100.918 107.5 98.5416 107.5ZM116.458 71.6667H71.6666C69.2907 71.6667 67.0121 72.6105 65.3321 74.2905C63.6521 75.9705 62.7083 78.2491 62.7083 80.625C62.7083 83.0009 63.6521 85.2795 65.3321 86.9595C67.0121 88.6395 69.2907 89.5833 71.6666 89.5833H116.458C118.834 89.5833 121.113 88.6395 122.793 86.9595C124.473 85.2795 125.417 83.0009 125.417 80.625C125.417 78.2491 124.473 75.9705 122.793 74.2905C121.113 72.6105 118.834 71.6667 116.458 71.6667ZM179.167 8.95834C181.035 8.95908 182.857 9.54416 184.377 10.6317C185.896 11.7192 187.038 13.2546 187.641 15.0231L188.806 18.4094C191.493 26.2838 197.675 32.474 205.558 35.1615L208.935 36.3171C210.702 36.9224 212.235 38.0647 213.32 39.5841C214.406 41.1036 214.99 42.9243 214.99 44.7917C214.99 46.659 214.406 48.4797 213.32 49.9992C212.235 51.5187 210.702 52.6609 208.935 53.2663L205.549 54.4308C197.675 57.1183 191.484 63.2996 188.797 71.1829L187.641 74.5602C187.036 76.3268 185.894 77.86 184.374 78.9455C182.855 80.031 181.034 80.6146 179.167 80.6146C177.299 80.6146 175.479 80.031 173.959 78.9455C172.44 77.86 171.297 76.3268 170.692 74.5602L169.527 71.174C168.201 67.2873 166.001 63.7564 163.097 60.8524C160.193 57.9484 156.662 55.7486 152.775 54.4219L149.398 53.2663C147.632 52.6609 146.098 51.5187 145.013 49.9992C143.927 48.4797 143.344 46.659 143.344 44.7917C143.344 42.9243 143.927 41.1036 145.013 39.5841C146.098 38.0647 147.632 36.9224 149.398 36.3171L152.784 35.1525C160.659 32.465 166.849 26.2838 169.536 18.4004L170.692 15.0231C171.296 13.2546 172.437 11.7192 173.957 10.6317C175.476 9.54416 177.298 8.95908 179.167 8.95834Z" fill="url(#paint0_radial_132_185)"/>
<defs>
<radialGradient id="paint0_radial_132_185" cx="0" cy="0" r="1" gradientUnits="userSpaceOnUse" gradientTransform="translate(182.5 45.5) rotate(129.726) scale(92.3147 97.86)">
<stop stop-color="#CD6321"/>
<stop offset="1"/>
</radialGradient>
</defs>
</svg>
